<svg width="26" height="26" viewBox="0 0 26 26" fill="none" xmlns="http://www.w3.org/2000/svg">
<path d="M24.268 12.5C24.268 18.4652 19.4323 23.301 13.467 23.301C12.9979 23.301 12.6175 23.6813 12.6175 24.1505C12.6175 24.6197 12.9979 25 13.467 25C20.3703 25 25.9665 19.4041 25.967 12.501L25.967 12.5C25.967 5.59645 20.3706 5.23279e-06 13.467 4.62926e-06C8.78563 4.22e-06 4.70648 2.57387 2.56556 6.37961C2.33552 6.78852 2.48053 7.30648 2.88944 7.53652C3.29835 7.76655 3.81632 7.62154 4.04635 7.21263C5.89859 3.92007 9.424 1.69903 13.467 1.69903C19.4323 1.69904 24.268 6.53479 24.268 12.5Z" fill="#002F82"/>
<path d="M4.11618 17.9155C1.13357 12.7495 2.90358 6.14371 8.06961 3.1611C8.47592 2.92651 8.61514 2.40696 8.38055 2.00064C8.14596 1.59432 7.62641 1.45511 7.22009 1.6897C1.24172 5.14131 -0.806813 12.7856 2.64429 18.7642L2.64477 18.765C6.09655 24.7437 13.7414 26.7921 19.7201 23.3403C23.7743 20.9996 26.02 16.731 25.9713 12.3647C25.966 11.8955 25.5814 11.5195 25.1123 11.5247C24.6432 11.53 24.2671 11.9145 24.2723 12.3837C24.3145 16.1612 22.372 19.8474 18.8706 21.8689C13.7045 24.8515 7.09878 23.0815 4.11618 17.9155Z" fill="#0E47DD"/>
<path d="M2.69903 12.5C2.69903 6.53479 7.53479 1.69903 13.5 1.69903C13.9692 1.69903 14.3495 1.31869 14.3495 0.849514C14.3495 0.380341 13.9692 0 13.5 0C6.59676 0 1.00053 5.59591 1 12.499L1 12.5C1 19.4036 6.59644 25 13.5 25C18.1814 25 22.2606 22.4261 24.4015 18.6204C24.6315 18.2115 24.4865 17.6935 24.0776 17.4635C23.6687 17.2334 23.1507 17.3785 22.9207 17.7874C21.0685 21.0799 17.543 23.301 13.5 23.301C7.53479 23.301 2.69903 18.4652 2.69903 12.5Z" fill="#FFA876"/>
</svg>
